<svg xmlns="http://www.w3.org/2000/svg" viewBox="0 0 512.24 480.5"><defs><style>.cls-1{fill:#2196f3;}.cls-2{fill:#fff;}.cls-2,.cls-3{stroke:#0038ff;stroke-miterlimit:10;stroke-width:0.5px;}.cls-3{fill:#0038ff;}</style></defs><title>spieler</title><g id="Ebene_2" data-name="Ebene 2"><g id="Capa_1" data-name="Capa 1"><path class="cls-1" d="M511.41,107.16v10.15A16,16,0,0,0,511.41,107.16Z"/><path class="cls-2" d="M96.24,464.25a16,16,0,0,0,16,16h288a16,16,0,0,0,16-16V417.2h-320Z"/><path class="cls-3" d="M505.1,98.94l-96-64a15.84,15.84,0,0,0-8.86-2.69h-288a15.9,15.9,0,0,0-8.87,2.69l-96,64a16,16,0,0,0-6.3,18.37H511.41V107.16A16,16,0,0,0,505.1,98.94Z"/><rect class="cls-2" x="96.24" y="267.26" width="320" height="70.95"/><polygon class="cls-2" points="24.72 188.25 487.76 188.25 511.41 117.31 1.07 117.31 24.72 188.25"/><path class="cls-3" d="M33.07,213.31a16,16,0,0,0,22.34,9.24l40.83-20.41v65.12h320V202.14l40.83,20.41a16,16,0,0,0,22.34-9.24l8.35-25.05h-463Z"/><rect class="cls-3" x="96.24" y="338.2" width="320" height="79"/><path class="cls-2" d="M347.57,36.92l-32-32A16.16,16.16,0,0,0,304.24.25h-96a16.14,16.14,0,0,0-11.33,4.67l-32,32a16.06,16.06,0,0,0,1.34,23.84l80,64a16.07,16.07,0,0,0,20,0l80-64a16,16,0,0,0,6-11.61A16.27,16.27,0,0,0,347.57,36.92ZM256.24,91.77l-56-44.86,14.65-14.66h82.75l14.66,14.66Z"/></g></g></svg>