<svg xmlns="http://www.w3.org/2000/svg" viewBox="0 0 511.99 480.5"><defs><style>.cls-1{fill:#fffcff;}.cls-2{fill:#ff6f00;}.cls-3{fill:none;stroke:#ff6f00;stroke-miterlimit:10;}</style></defs><title>spieler-2</title><g id="Ebene_2" data-name="Ebene 2"><g id="Capa_1" data-name="Capa 1"><path class="cls-1" d="M256,128.5A16.14,16.14,0,0,1,246,125L232,113.8V480.5h24v-352Z"/><path d="M266,125a16.29,16.29,0,0,1-10,3.49v352h24V113.82Z"/><path d="M504.85,99.19l-5.39-3.59L457.3,223a16,16,0,0,0,21.86-9.45l32-96A16,16,0,0,0,504.85,99.19Z"/><path class="cls-1" d="M498.62,95,483.07,84.67,440.12,214.45l16.29,8.15.41.2.48.21L499.46,95.6Z"/><path class="cls-2" d="M166,61a16.06,16.06,0,0,1-1.34-23.84l4.67-4.67H112a15.9,15.9,0,0,0-8.87,2.69L27.37,85.69,69.88,215.38l-13.95,7,40.06-20V464.5a16,16,0,0,0,16,16H232V113.8Z"/><path class="cls-2" d="M408.85,35.19A15.84,15.84,0,0,0,400,32.5H342.64l4.68,4.67A16.27,16.27,0,0,1,352,49.4,16,16,0,0,1,346,61l-66,52.81V480.5H400a16,16,0,0,0,16-16V202.39l24.13,12.06L483.07,84.67Z"/><polygon class="cls-2" points="255.99 92.02 312.02 47.16 297.36 32.5 214.61 32.5 199.96 47.16 255.99 92.02"/><path d="M7.12,99.19a16,16,0,0,0-6.3,18.37l32,96a16,16,0,0,0,20.74,9.94L11.79,96.08Z"/><polygon class="cls-1" points="27.37 85.69 12.12 95.86 11.79 96.08 53.55 223.5 53.59 223.6 54.15 223.31 55.93 222.42 69.88 215.38 27.37 85.69"/><path class="cls-3" d="M160,49.4A16.06,16.06,0,0,0,166,61l66,52.79L246,125a16.14,16.14,0,0,0,10,3.49h0A16.29,16.29,0,0,0,266,125l14-11.19L346,61a16,16,0,0,0,6-11.61,16.27,16.27,0,0,0-4.67-12.23l-4.68-4.67L315.32,5.17A16.16,16.16,0,0,0,304,.5H208a16.14,16.14,0,0,0-11.33,4.67L169.33,32.5l-4.67,4.67A16.1,16.1,0,0,0,160,49.4ZM297.36,32.5,312,47.16,256,92,200,47.16,214.61,32.5Z"/></g></g></svg>